<svg xmlns="http://www.w3.org/2000/svg" width="501.994" height="323.422" viewBox="0 0 501.994 323.422">
  <g id="Artificial_Intelligence" data-name="Artificial Intelligence" transform="translate(-1132.867 -3698.636)">
    <path id="Path_190290" data-name="Path 190290" d="M1160.648,2553.607v78.508a2.117,2.117,0,0,0,3.181,1.831l163.669-95.125a4.231,4.231,0,0,0,2.1-3.657v-79.018a2.116,2.116,0,0,0-3.188-1.825l-163.676,95.636A4.235,4.235,0,0,0,1160.648,2553.607Z" transform="translate(-0.197 1244.61)" fill="#dde8f7"/>
    <path id="Path_190290-2" data-name="Path 190290" d="M1160.648,2518.538v50.86a1.371,1.371,0,0,0,2.061,1.186l106.029-61.624a2.741,2.741,0,0,0,1.363-2.369V2455.4a1.371,1.371,0,0,0-2.065-1.182L1162,2516.173A2.743,2.743,0,0,0,1160.648,2518.538Z" transform="translate(32.249 1322.732)" fill="none" stroke="#0357ff" stroke-width="2"/>
    <path id="Path_210832" data-name="Path 210832" d="M371.052,377.684q-1.91,1.91-4.01,3.628t-4.2,3.247q-2.1,1.719-4.392,3.247a52.073,52.073,0,0,1-4.392,2.865,1.1,1.1,0,0,1-.764.382h-.955a1.694,1.694,0,0,1-.764-.191,1.249,1.249,0,0,1-.573-.573l-5.729-6.111-.764-.382a2.219,2.219,0,0,0-.573-.382h-.764l-.764.382q-2.674,1.337-5.347,2.483t-5.538,2.292q-2.674.955-5.538,1.91l-5.729,1.528a1.1,1.1,0,0,0-.764.382,2.22,2.22,0,0,0-.573.382l-.382.764a1.694,1.694,0,0,0-.191.764l-.191,8.4a1.7,1.7,0,0,0-.191.764,2.993,2.993,0,0,1-.573.764,2.222,2.222,0,0,1-.573.382l-.764.382q-5.347.764-10.695,1.146a102.929,102.929,0,0,1-10.886.191,101.112,101.112,0,0,1-10.695-.955,78.549,78.549,0,0,1-10.695-1.91l-.764-.382-.573-.573a2.074,2.074,0,0,1-.382-.764v-.764l.191-8.4v-.764a2.219,2.219,0,0,0-.382-.573,1.249,1.249,0,0,0-.573-.573,1.1,1.1,0,0,0-.764-.382q-2.865-.955-5.538-1.91-2.865-1.146-5.538-2.292l-5.347-2.674q-2.674-1.528-5.156-3.056a1.694,1.694,0,0,0-.764-.191.811.811,0,0,0-.764,0,1.694,1.694,0,0,0-.764.191q-.191,0-.573.382l-6.111,5.729-.764.382a1.7,1.7,0,0,1-.764.191h-.764l-.764-.382q-4.392-3.247-8.4-6.684-4.2-3.628-7.83-7.448-3.629-4.01-6.875-8.4a67.853,67.853,0,0,1-6.111-8.785,1.1,1.1,0,0,1-.382-.764v-.955a1.694,1.694,0,0,1,.191-.764,1.249,1.249,0,0,1,.573-.573l6.111-5.729a2.222,2.222,0,0,0,.382-.573,20938.338,20938.338,0,0,1,.382-1.528l-.382-.764q-1.337-2.674-2.483-5.347a42.225,42.225,0,0,1-2.292-5.538,40.577,40.577,0,0,1-1.91-5.538,47.678,47.678,0,0,1-1.528-5.729l-.382-.764a1.249,1.249,0,0,0-.573-.573,2.22,2.22,0,0,0-.573-.382,1.694,1.694,0,0,0-.764-.191l-8.4-.191a1.7,1.7,0,0,0-.764-.191,2.991,2.991,0,0,1-.764-.573,2.223,2.223,0,0,1-.382-.573,1.1,1.1,0,0,1-.382-.764,102.233,102.233,0,0,1-1.337-10.695q-.191-5.347,0-10.886.191-5.347.764-10.695a105.706,105.706,0,0,1,2.1-10.695,1.7,1.7,0,0,1,.191-.764,1.249,1.249,0,0,0,.573-.573l.764-.382h.955l8.4.191h.764a2.224,2.224,0,0,0,.573-.382,1.249,1.249,0,0,0,.573-.573l.382-.764q.955-2.865,1.91-5.538,1.146-2.865,2.292-5.538a52.354,52.354,0,0,1,2.674-5.347q1.337-2.483,2.865-5.156a2.221,2.221,0,0,0,.382-.573V248.2a1.7,1.7,0,0,0-.191-.764l-.382-.764-5.729-6.111a1.249,1.249,0,0,1-.573-.573,2.126,2.126,0,0,1-.191-.955,1.7,1.7,0,0,1,.191-.764,1.1,1.1,0,0,1,.382-.764,105.313,105.313,0,0,1,6.493-8.4q3.628-4.01,7.639-7.83a86.879,86.879,0,0,1,8.212-6.875q4.2-3.247,8.785-6.111l.764-.382h.955a1.7,1.7,0,0,1,.764.191,1.249,1.249,0,0,1,.573.573l5.92,6.111a1.249,1.249,0,0,0,.573.573,1.7,1.7,0,0,0,.764.191h.764a1.7,1.7,0,0,0,.764-.191q2.483-1.337,5.156-2.674,2.865-1.146,5.538-2.292,2.865-.955,5.729-1.719,2.674-.955,5.538-1.719a1.7,1.7,0,0,0,.764-.191,1.249,1.249,0,0,0,.573-.573.612.612,0,0,0,.382-.573,1.7,1.7,0,0,0,.191-.764l.382-8.4a1.7,1.7,0,0,1,.191-.764,1.1,1.1,0,0,1,.382-.764,1.249,1.249,0,0,1,.573-.573,1.694,1.694,0,0,1,.764-.191,102.248,102.248,0,0,1,10.695-1.337,104.151,104.151,0,0,1,10.886-.191,101.1,101.1,0,0,1,10.695.955q5.347.764,10.695,1.91l.764.382a1.249,1.249,0,0,1,.573.573l.382.764a1.7,1.7,0,0,1,.191.764l-.382,8.4a83756.994,83756.994,0,0,1,.382,1.528,1.249,1.249,0,0,1,.573.573l.764.382a40.579,40.579,0,0,1,5.538,1.91,42.216,42.216,0,0,1,5.538,2.292q2.674,1.146,5.347,2.483,2.674,1.528,5.156,3.056a41883.418,41883.418,0,0,1,1.528.382l.764-.382a.612.612,0,0,0,.573-.382l6.111-5.729.764-.382a1.7,1.7,0,0,1,.764-.191h.764l.764.382q4.583,3.247,8.594,6.684,4.01,3.628,7.639,7.639a72.727,72.727,0,0,1,7.066,8.212q3.247,4.2,6.111,8.785a1.694,1.694,0,0,1,.191.764,3.142,3.142,0,0,1,.191.955l-.382.764a2.222,2.222,0,0,1-.382.573l-6.111,5.729a2.994,2.994,0,0,0-.573.764.778.778,0,0,0-.191.573,1.229,1.229,0,0,0,0,.955.778.778,0,0,0,.191.573q1.337,2.674,2.483,5.347,1.337,2.865,2.292,5.538a57.437,57.437,0,0,1,1.91,5.538,47.675,47.675,0,0,1,1.528,5.729l.382.764a1.25,1.25,0,0,0,.573.573.612.612,0,0,0,.573.382,1.7,1.7,0,0,0,.764.191l8.4.382a1.7,1.7,0,0,1,.764.191l.764.382a1.249,1.249,0,0,1,.573.573,1.7,1.7,0,0,1,.191.764,101.67,101.67,0,0,1,1.337,10.886,99.932,99.932,0,0,1,.191,10.695,101.715,101.715,0,0,1-.955,10.886,95.8,95.8,0,0,1-2.1,10.5,1.7,1.7,0,0,1-.191.764l-.573.573a1.1,1.1,0,0,1-.764.382,2.125,2.125,0,0,1-.955.191l-8.212-.382a3.14,3.14,0,0,0-.955.191.612.612,0,0,0-.573.382,1.249,1.249,0,0,0-.573.573,2.221,2.221,0,0,0-.382.573l-1.91,5.729-2.292,5.347a52.353,52.353,0,0,1-2.674,5.347q-1.337,2.674-2.865,5.156l-.382.764v.764a1.7,1.7,0,0,0,.191.764,1.249,1.249,0,0,0,.573.573l5.729,6.111.382.764a1.623,1.623,0,0,1,0,1.528,1.106,1.106,0,0,1-.191.764q-1.719,2.292-3.247,4.392l-3.438,4.2-3.819,3.819q-1.719,1.91-3.819,3.819Z" transform="translate(1069.729 3557.881)" fill="#f8f8f8" stroke="#0357ff" stroke-width="2"/>
    <g id="Group_336440" data-name="Group 336440" transform="translate(1290.857 3780.31)">
      <path id="Path_210628" data-name="Path 210628" d="M267.7,122.137a77.051,77.051,0,1,1-77.053-77.052A77.052,77.052,0,0,1,267.7,122.137" transform="translate(-113.601 -45.085)" fill="#2b2bb2"/>
      <path id="Path_210629" data-name="Path 210629" d="M191.709,176.433a8.262,8.262,0,0,1-1.672-16.352,44.532,44.532,0,1,0-18.11-87.2,8.262,8.262,0,1,1-3.36-16.178A61.055,61.055,0,1,1,193.4,176.258,8.307,8.307,0,0,1,191.709,176.433Z" transform="translate(-103.5 -38.996)" fill="#2989fc"/>
      <path id="Path_210630" data-name="Path 210630" d="M133.295,135.489a8.264,8.264,0,0,1-8.08-6.583,61.055,61.055,0,1,1,119.56-24.828,8.262,8.262,0,0,1-16.179,3.356,44.478,44.478,0,0,0-52.656-34.545,44.582,44.582,0,0,0-34.547,52.657,8.269,8.269,0,0,1-8.1,9.943Z" transform="translate(-107.512 -39.007)" fill="#62de7f"/>
      <path id="Path_210631" data-name="Path 210631" d="M184.972,173.658a61.092,61.092,0,0,1-59.429-75.049,8.262,8.262,0,0,1,16.082,3.793,44.558,44.558,0,0,0,52.419,53.8,8.262,8.262,0,1,1,3.36,16.178A61.113,61.113,0,0,1,184.972,173.658Z" transform="translate(-107.507 -35.113)" fill="#f4faff"/>
      <path id="Path_210633" data-name="Path 210633" d="M208.707,117a23.189,23.189,0,1,1-23.189-23.2A23.2,23.2,0,0,1,208.707,117" transform="translate(-108.468 -39.953)" fill="#ffe600"/>
    </g>
    <path id="Path_210810" data-name="Path 210810" d="M20,10A10,10,0,0,1,0,10Z" transform="translate(1217.729 3981.055) rotate(150)" fill="#2989fc"/>
    <path id="Path_211083" data-name="Path 211083" d="M20,10A10,10,0,0,1,0,10Z" transform="translate(1325.729 3968.055) rotate(150)" fill="#2989fc"/>
    <path id="Path_210811" data-name="Path 210811" d="M20,10A10,10,0,0,1,0,10Z" transform="translate(1261.088 3956.055) rotate(150)" fill="#76c1ff"/>
    <path id="Path_210812" data-name="Path 210812" d="M1222.214,1266.883h135.714" transform="translate(-521.27 3511.648) rotate(-30)" fill="none" stroke="#0357ff" stroke-width="2"/>
    <path id="Path_210804" data-name="Path 210804" d="M20,10A10,10,0,0,1,0,10Z" transform="translate(1239.928 4017.929) rotate(150)" fill="#76c1ff"/>
    <path id="Path_210807" data-name="Path 210807" d="M20,10A10,10,0,0,1,0,10Z" transform="translate(1175.124 3963.947) rotate(150)" fill="#76c1ff"/>
    <path id="Path_210805" data-name="Path 210805" d="M20,10A10,10,0,0,1,0,10Z" transform="translate(1276.242 3997.716) rotate(150)" fill="#62de7f"/>
    <path id="Path_210808" data-name="Path 210808" d="M20,10A10,10,0,0,1,0,10Z" transform="translate(1262.248 3912.456) rotate(150)" fill="#dde8f7"/>
    <path id="Path_210806" data-name="Path 210806" d="M1222.213,1266.883h145.573" transform="translate(-478.154 3535.146) rotate(-30)" fill="none" stroke="#0357ff" stroke-width="2"/>
    <path id="Path_210809" data-name="Path 210809" d="M1222.214,1266.883h169.195" transform="translate(-558.543 3490.608) rotate(-30)" fill="none" stroke="#0357ff" stroke-width="2"/>
    <g id="Group_336716" data-name="Group 336716" transform="translate(144.343 -570.786)">
      <path id="Path_210893" data-name="Path 210893" d="M1222.214,1266.883h26.534" transform="translate(-310.839 3926.294) rotate(-30)" fill="none" stroke="#2b2bb2" stroke-linecap="round" stroke-width="20"/>
      <path id="Path_210894" data-name="Path 210894" d="M1222.214,1266.883H1253.2" transform="translate(-317.205 3839.699) rotate(-30)" fill="none" stroke="#2b2bb2" stroke-linecap="round" stroke-width="20"/>
      <path id="Path_210892" data-name="Path 210892" d="M1222.214,1266.883h25.363" transform="translate(-287.846 3913.051) rotate(-30)" fill="#2989fc" stroke="#2989fc" stroke-linecap="round" stroke-width="20"/>
      <path id="Path_211084" data-name="Path 211084" d="M1222.214,1266.883h25.363" transform="translate(-306.06 3876.238) rotate(-30)" fill="#2989fc" stroke="#76c1ff" stroke-linecap="round" stroke-width="20"/>
      <circle id="Ellipse_22968" data-name="Ellipse 22968" cx="10" cy="10" r="10" transform="translate(1393.517 4389.52)" fill="#76c1ff"/>
      <circle id="Ellipse_22982" data-name="Ellipse 22982" cx="10" cy="10" r="10" transform="translate(1375.304 4352.706)" fill="#2989fc"/>
      <path id="Path_210895" data-name="Path 210895" d="M1269.927,1266.883h-47.714" transform="translate(-358.527 3863.556) rotate(-30)" fill="none" stroke="#76c1ff" stroke-linecap="round" stroke-width="20"/>
      <circle id="Ellipse_22969" data-name="Ellipse 22969" cx="10" cy="10" r="10" transform="translate(1391.56 4300.252)" fill="#76c1ff"/>
      <circle id="Ellipse_22970" data-name="Ellipse 22970" cx="10" cy="10" r="10" transform="translate(1364.704 4315.745)" fill="#dde8f7"/>
      <circle id="Ellipse_22966" data-name="Ellipse 22966" cx="10" cy="10" r="10" transform="translate(1463.517 4349.52)" fill="#2b2bb2"/>
      <circle id="Ellipse_22967" data-name="Ellipse 22967" cx="10" cy="10" r="10" transform="translate(1423.517 4323.52)" fill="#2989fc"/>
      <circle id="Ellipse_22965" data-name="Ellipse 22965" cx="10" cy="10" r="10" transform="translate(1470.517 4298)" fill="#76c1ff"/>
    </g>
    <path id="Path_210875" data-name="Path 210875" d="M363.908,669.747,277.266,619.2a3.046,3.046,0,0,1,0-5.279l34.549-19.87a3.042,3.042,0,0,1,3.039,0L401.5,644.6a3.046,3.046,0,0,1,0,5.279l-34.549,19.87A3.046,3.046,0,0,1,363.908,669.747Z" transform="translate(2194.658 3948.406) rotate(120)" fill="#2989fc"/>
    <path id="Path_210876" data-name="Path 210876" d="M311.5,624.512l-35.14-20.5a1.235,1.235,0,0,1,0-2.141l14.012-8.059a1.234,1.234,0,0,1,1.232,0l35.14,20.5a1.235,1.235,0,0,1,0,2.141l-14.012,8.059A1.236,1.236,0,0,1,311.5,624.512Z" transform="translate(2191.393 3972.74) rotate(120)" fill="#ffe500"/>
  </g>
</svg>
