<?xml version="1.0" encoding="utf-8"?>
<svg xmlns="http://www.w3.org/2000/svg" viewBox="0 0 336.512 200.5">
  <defs>
    <clipPath id="a">
      <circle cx="4.533" cy="4.533" r="4.533" class="a" />
    </clipPath>
    <style>.a,.c,.i{fill:none}.c{stroke:#5777ea;stroke-width:2px}.d{fill:#62de7f}.e{fill:#ffe600}.f{fill:#2b2bb2}.g{fill:#5777ea}.i{stroke:#0357ff;stroke-miterlimit:10}.j{fill:#d5f1ff}</style>
  </defs>
  <path fill="#dcecff" stroke="#dde9f7" d="M22.332.5h257.034a5.824 5.824 0 0 1 5.827 5.821V165.15a5.825 5.825 0 0 1-5.825 5.824H22.328a5.824 5.824 0 0 1-5.824-5.824V6.327A5.826 5.826 0 0 1 22.33.5Z" />
  <path d="M16.503 14.491h268.689" class="c" />
  <ellipse cx="2.088" cy="2.08" class="d" rx="2.088" ry="2.08" transform="translate(39.41 5.632)" />
  <ellipse cx="2.088" cy="2.08" class="e" rx="2.088" ry="2.08" transform="translate(31.057 5.632)" />
  <ellipse cx="2.088" cy="2.08" class="f" rx="2.088" ry="2.08" transform="translate(22.704 5.632)" />
  <path d="M37.877 27.7h149.1c2.248 0 4.07 1.131 4.07 2.523v23.985c0 1.394-1.822 2.523-4.07 2.523h-149.1c-2.248 0-4.07-1.13-4.07-2.523V30.224c-.001-1.395 1.821-2.524 4.07-2.524ZM35.814 66.476h73.572A2.312 2.312 0 0 1 111.397 69v23.983a2.311 2.311 0 0 1-2.011 2.524H35.814a2.313 2.313 0 0 1-2.011-2.524V69a2.314 2.314 0 0 1 2.011-2.524ZM35.814 104.889h73.572a2.312 2.312 0 0 1 2.011 2.524v23.983a2.312 2.312 0 0 1-2.011 2.525H35.814a2.312 2.312 0 0 1-2.011-2.525V107.41a2.314 2.314 0 0 1 2.011-2.521Z" class="g" />
  <path d="M119.008 67.888h10.653M119.008 75.263h27.862M119.008 79.36h57.363M119.008 83.458h57.363M119.008 105.857h10.653M119.008 113.232h27.862M119.008 117.33h57.363M119.008 121.427h57.363" class="c" />
  <path d="M206.824.673h33.146v13.569h-33.146Z" class="g" />
  <path fill="none" stroke="#e3ecf8" stroke-width="2" d="M215.22 7.454h16.793" />
  <path d="M248.297 7.454h16.793" class="i" />
  <path d="M275.234 3.194a4.534 4.534 0 1 1-4.533 4.532 4.534 4.534 0 0 1 4.533-4.532Z" class="g" />
  <path d="M275.235 4.796a1.659 1.659 0 0 1 0 3.317 1.658 1.658 0 0 1-1.659-1.657 1.659 1.659 0 0 1 1.659-1.659" class="j" />
  <g clip-path="url(#a)" transform="translate(270.701 3.195)">
    <path d="M7.852 8.238a3.318 3.318 0 0 0-6.635 0 5.4 5.4 0 0 0 6.635 0Z" class="j" />
  </g>
  <path d="M252.607 41.374a79.564 79.564 0 1 0 0 159.127Z" class="a" />
  <g transform="translate(0 71.648)">
    <circle cx="16.504" cy="16.504" r="16.504" class="d" />
    <path fill="none" stroke="#000" stroke-miterlimit="10" stroke-width="2" d="M25.071 11.236 14.537 21.769l-5.232-5.23" />
  </g>
  <path d="M321.117 119.223a82.344 82.344 0 0 1-157.689 25.4l-1.812-4.245" class="i" />
  <path d="m150.848 154.479 10.9-14.591 18.079 2.235M253.551 31.676a82.168 82.168 0 0 1 55.19 37.593 99.688 99.688 0 0 1 5.777 10.927" class="i" />
  <path d="m324.722 66.378-10.475 14.024-17.377-2.146" class="i" />
  <path d="M171.632 98.922a1.586 1.586 0 0 1 1.547-1.282h5.463a1.58 1.58 0 0 0 1.52-1.141 61.532 61.532 0 0 1 5.927-14.288 1.6 1.6 0 0 0-.248-1.9l-3.869-3.874a1.583 1.583 0 0 1-.209-1.99 70.283 70.283 0 0 1 19.819-19.842 1.594 1.594 0 0 1 1.985.213l3.873 3.865a1.584 1.584 0 0 0 1.9.248 61.589 61.589 0 0 1 14.26-5.923 1.577 1.577 0 0 0 1.141-1.522v-5.5a1.594 1.594 0 0 1 1.321-1.548 70.234 70.234 0 0 1 27.979 0 1.587 1.587 0 0 1 1.28 1.547v5.49a1.577 1.577 0 0 0 1.141 1.519 61.973 61.973 0 0 1 14.26 5.915 1.587 1.587 0 0 0 1.9-.248l3.894-3.87a1.581 1.581 0 0 1 1.982-.213 70.2 70.2 0 0 1 19.847 19.843 1.583 1.583 0 0 1-.208 1.99l-3.85 3.871a1.593 1.593 0 0 0-.248 1.9 62.159 62.159 0 0 1 5.917 14.28 1.567 1.567 0 0 0 1.52 1.141h5.45a1.589 1.589 0 0 1 1.549 1.279 70.361 70.361 0 0 1 0 28 1.59 1.59 0 0 1-1.549 1.283h-5.476a1.577 1.577 0 0 0-1.522 1.141 61.875 61.875 0 0 1-5.912 14.332 1.6 1.6 0 0 0 .248 1.9l3.868 3.89a1.591 1.591 0 0 1 .214 1.982 70.2 70.2 0 0 1-19.824 19.842 1.557 1.557 0 0 1-1.977-.209l-3.874-3.871a1.582 1.582 0 0 0-1.9-.251 61.682 61.682 0 0 1-14.26 5.922 1.581 1.581 0 0 0-1.149 1.534v5.477a1.592 1.592 0 0 1-1.282 1.549 70.176 70.176 0 0 1-27.979 0 1.59 1.59 0 0 1-1.283-1.549v-5.477a1.588 1.588 0 0 0-1.14-1.522 61.42 61.42 0 0 1-14.264-5.915 1.6 1.6 0 0 0-1.92.248l-3.863 3.878a1.575 1.575 0 0 1-1.987.208 70.185 70.185 0 0 1-19.882-19.819 1.57 1.57 0 0 1 .208-1.987l3.87-3.876a1.607 1.607 0 0 0 .246-1.921 61.7 61.7 0 0 1-5.924-14.281 1.59 1.59 0 0 0-1.522-1.141h-5.478a1.579 1.579 0 0 1-1.549-1.282 70.287 70.287 0 0 1 0-28" class="f" />
  <g transform="translate(189.361 62.388)">
    <circle cx="34.246" cy="34.246" r="34.246" class="f" transform="translate(16.814 16.814)" />
    <circle cx="50.684" cy="50.684" r="50.684" fill="none" stroke="#5777ea" stroke-miterlimit="10" />
    <path fill="#a7e9ff" d="M97.962 48.892 65.529 30.149a.968.968 0 0 0-1.452.839v8.672a1.815 1.815 0 0 0 .908 1.572l13.819 7.979-13.819 7.978a1.817 1.817 0 0 0-.908 1.573v8.671a.967.967 0 0 0 1.452.839l23.2-13.392 9.236-5.332a.379.379 0 0 0 0-.656" />
    <path d="m3.405 49.53 32.433 18.743a.968.968 0 0 0 1.452-.839v-8.673a1.815 1.815 0 0 0-.908-1.572L22.564 49.21l13.819-7.978a1.817 1.817 0 0 0 .908-1.573v-8.671a.967.967 0 0 0-1.452-.839l-23.2 13.392-9.236 5.332a.379.379 0 0 0 0 .656" class="e" />
    <path fill="none" stroke="#fff" stroke-miterlimit="10" d="m39.957 77.208 19.565-53.047" />
  </g>
  <path d="M313.619 113.072a22.892 22.892 0 1 1-22.892 22.892 22.892 22.892 0 0 1 22.892-22.892" class="d" />
  <path fill="#fff" d="M301.352 147.812v-12.731h7.424v-13.258h18.03v25.989Z" />
  <path d="M312.695 124.807h2.585v2.585h-2.585zM312.695 131.808h2.585v2.585h-2.585zM312.695 138.699h2.585v2.585h-2.585zM312.695 128.307h2.585v2.585h-2.585zM312.695 135.308h2.585v2.585h-2.585zM312.695 142.199h2.585v2.585h-2.585zM316.415 124.807H319v2.585h-2.585zM316.415 131.808H319v2.585h-2.585zM316.415 138.699H319v2.585h-2.585zM316.415 128.307H319v2.585h-2.585zM316.415 135.308H319v2.585h-2.585zM316.415 142.199H319v2.585h-2.585zM320.134 124.807h2.585v2.585h-2.585zM320.134 131.808h2.585v2.585h-2.585zM320.134 138.699h2.585v2.585h-2.585zM320.134 128.307h2.585v2.585h-2.585zM320.134 135.308h2.585v2.585h-2.585zM320.134 142.199h2.585v2.585h-2.585zM304.61 147.808v-5.321h2.585v5.321" class="d" />
</svg>