<svg width="253" height="30" viewBox="0 0 253 30" fill="none" xmlns="http://www.w3.org/2000/svg">
<g clip-path="url(#clip0_59_866)">
<path d="M36.8348 7.41937H30.4243V24.5424H33.2664V17.8231H36.8543C40.7347 17.8231 42.8748 15.952 42.8748 12.5515C42.8748 11.0075 42.285 7.41937 36.8299 7.41937H36.8348ZM39.9889 12.5996C39.9889 14.5283 38.9749 15.3171 36.4838 15.3171H33.2712V9.94935H36.8592C38.9651 9.94935 39.9889 10.8151 39.9889 12.5996ZM51.3425 12.0657L51.557 12.1667L51.0744 14.6967L50.7429 14.5957C50.4699 14.5139 50.1969 14.4706 49.9191 14.4706C47.2622 14.4706 47.0477 16.5581 47.0477 19.0832V24.5376H44.4153V11.9647H46.8869V13.4798C47.5596 12.4601 48.3737 11.931 49.4413 11.806C50.1433 11.7242 50.8258 11.8204 51.3474 12.0657H51.3425ZM57.8164 11.7146C55.7446 11.7146 54.0822 12.4938 53.0146 13.9656C51.8934 15.5143 51.7276 17.3325 51.7276 18.2752C51.7276 22.2481 54.1164 24.8166 57.8164 24.8166C62.3111 24.8166 63.9052 21.2429 63.9052 18.1838C63.9052 16.4234 63.3738 14.8265 62.4183 13.6866C61.3312 12.3976 59.742 11.7146 57.8164 11.7146ZM57.8164 22.4982C55.7543 22.4982 54.4771 20.8821 54.4771 18.28C54.4771 15.6779 55.7592 14.0137 57.8164 14.0137C59.8736 14.0137 61.1801 15.6683 61.1801 18.2319C61.1801 20.7955 59.8882 22.4982 57.8164 22.4982ZM86.0373 12.0657L86.2517 12.1667L85.7691 14.6967L85.4376 14.5957C85.1646 14.5139 84.8916 14.4706 84.6187 14.4706C81.9618 14.4706 81.7473 16.5581 81.7473 19.0832V24.5376H79.1149V11.9647H81.5865V13.4798C82.2592 12.4601 83.0733 11.931 84.1409 11.806C84.8429 11.7242 85.5254 11.8204 86.0421 12.0657H86.0373ZM95.4946 20.5118L95.4458 20.6513C94.895 22.1952 93.5836 22.5223 92.5745 22.5223C90.5807 22.5223 89.2986 21.2188 89.1767 19.0977H98.1855L98.2196 18.8524C98.2586 18.5638 98.2538 18.1501 98.2489 17.8519C98.2489 17.7702 98.2489 17.698 98.2489 17.6259C98.1173 14.1051 95.7919 11.7434 92.4624 11.7434C90.5173 11.7434 88.9232 12.4986 87.8507 13.9271C86.983 15.0815 86.4857 16.6783 86.4857 18.3089C86.4857 22.1952 88.9329 24.807 92.5794 24.807C95.3971 24.807 97.3373 23.3929 98.049 20.8292L98.1319 20.5214H95.4994L95.4946 20.5118ZM89.2644 16.8419C89.4838 15.1007 90.6928 13.9944 92.4136 13.9944C93.725 13.9944 95.2801 14.7496 95.4994 16.8419H89.2644ZM74.318 13.0277C73.4697 12.1571 72.3339 11.7194 70.9299 11.7194C67.0641 11.7194 65.3091 15.0718 65.3091 18.1886C65.3091 21.3054 67.0495 24.6146 70.9299 24.6146C72.2266 24.6146 73.382 24.1432 74.2156 23.2967C74.2059 23.8498 74.1912 24.3789 74.1766 24.6049C74.0352 26.678 73.0212 27.6448 70.9982 27.6448C69.8964 27.6448 68.6338 27.26 68.3901 26.1778L68.3365 25.9373H65.743L65.7869 26.2788C66.0599 28.4961 68.0293 29.8717 70.9348 29.8717C73.4795 29.8717 75.2929 28.9242 76.1753 27.1349C76.5994 26.274 76.8139 25.0138 76.8139 23.3977V11.9647H74.3228V13.018L74.318 13.0277ZM71.0957 22.2962C70.1743 22.2962 68.0342 21.8826 68.0342 18.078C68.0342 15.5769 69.2334 14.0185 71.1639 14.0185C72.6556 14.0185 74.2497 15.0863 74.2497 18.078C74.2497 20.7186 73.07 22.2962 71.0957 22.2962ZM110.417 20.7619C110.417 22.7628 108.735 24.7781 104.976 24.7781C101.652 24.7781 99.6724 23.3592 99.4091 20.7811L99.3799 20.5166H101.973L102.012 20.709C102.329 22.2577 103.826 22.5848 105.025 22.5848C106.341 22.5848 107.745 22.1664 107.745 20.9928C107.745 20.4011 107.355 19.9779 106.58 19.7422C106.122 19.6075 105.561 19.4536 104.962 19.2853C103.938 19.0015 102.875 18.7081 102.222 18.4868C100.603 17.9145 99.6772 16.8034 99.6772 15.4326C99.6772 12.8978 102.178 11.7627 104.655 11.7627C107.969 11.7627 109.685 12.994 109.9 15.5288L109.919 15.7885H107.365L107.331 15.5865C107.072 14.1291 105.605 13.9127 104.752 13.9127C104.016 13.9127 102.3 14.0425 102.3 15.2498C102.3 15.7981 102.773 16.2021 103.753 16.4811C104.045 16.5629 104.479 16.6735 104.976 16.7986C106.015 17.0631 107.311 17.395 107.965 17.6162C109.588 18.179 110.412 19.2372 110.412 20.7619H110.417ZM122.58 20.7619C122.58 22.7628 120.898 24.7781 117.139 24.7781C113.814 24.7781 111.835 23.3592 111.572 20.7811L111.543 20.5166H114.136L114.175 20.709C114.492 22.2577 115.989 22.5848 117.188 22.5848C118.504 22.5848 119.908 22.1664 119.908 20.9928C119.908 20.4011 119.518 19.9779 118.743 19.7422C118.285 19.6075 117.719 19.4536 117.125 19.2853C116.101 19.0015 115.038 18.7081 114.39 18.4868C112.771 17.9145 111.845 16.8034 111.845 15.4326C111.845 12.8978 114.346 11.7627 116.822 11.7627C120.137 11.7627 121.853 12.994 122.068 15.5288L122.092 15.7885H119.538L119.503 15.5865C119.245 14.1291 117.778 13.9127 116.925 13.9127C116.189 13.9127 114.473 14.0425 114.473 15.2498C114.473 15.7981 114.945 16.2021 115.925 16.4811C116.218 16.5629 116.652 16.6735 117.154 16.7986C118.192 17.0631 119.489 17.395 120.142 17.6162C121.765 18.179 122.589 19.2372 122.589 20.7619H122.58Z" fill="#4B4E52"/>
<path d="M124.656 13.3163C123.676 13.3163 122.862 12.5611 122.862 11.527C122.862 10.4929 123.676 9.73773 124.656 9.73773C125.636 9.73773 126.45 10.4929 126.45 11.527C126.45 12.5611 125.636 13.3163 124.656 13.3163ZM124.656 10.0359C123.842 10.0359 123.189 10.6516 123.189 11.5222C123.189 12.3928 123.842 13.0084 124.656 13.0084C125.47 13.0084 126.124 12.3928 126.124 11.5222C126.124 10.6516 125.47 10.0359 124.656 10.0359ZM124.447 11.8541V12.4505H123.91V10.5698H124.803C125.227 10.5698 125.505 10.8151 125.505 11.224C125.505 11.5174 125.363 11.7146 125.139 11.7915L125.573 12.4457H124.978L124.612 11.8493H124.442L124.447 11.8541ZM124.744 11.0123H124.447V11.4308H124.744C124.905 11.4308 124.993 11.3538 124.993 11.224C124.993 11.0941 124.905 11.0075 124.744 11.0075V11.0123Z" fill="#4B4E52"/>
<path d="M131.81 23.1311H135.482C139.559 23.1311 142.124 20.3501 142.124 16.1111C142.124 11.8721 139.559 9.09106 135.482 9.09106H131.81V23.1311ZM130.433 24.4001V7.82206H135.482C140.288 7.82206 143.528 11.0621 143.528 16.1111C143.528 21.1601 140.288 24.4001 135.482 24.4001H130.433Z" fill="#4B4E52"/>
<path d="M152.103 18.4871V16.0841C152.103 14.4641 150.969 13.4111 149.133 13.4111C147.756 13.4111 146.622 13.8161 145.65 14.4641V13.1681C146.46 12.6281 147.783 12.1691 149.268 12.1691C151.806 12.1691 153.399 13.6271 153.399 16.0031V24.4001H152.103V23.2661C151.59 23.8871 150.267 24.5891 148.782 24.5891C146.352 24.5891 144.354 23.1851 144.354 20.8901C144.354 18.6761 146.352 17.2181 148.836 17.2181C150.267 17.2181 151.563 17.8931 152.103 18.4871ZM152.103 21.6731V20.1341C151.725 19.1081 150.375 18.3521 148.917 18.3521C147.216 18.3521 145.65 19.1891 145.65 20.8901C145.65 22.5911 147.216 23.4551 148.917 23.4551C150.375 23.4551 151.725 22.6991 152.103 21.6731Z" fill="#4B4E52"/>
<path d="M158.545 13.5731V24.4001H157.195V13.5731H154.63V12.4121H157.195V9.33406H158.545V12.4121H161.38V13.5731H158.545Z" fill="#4B4E52"/>
<path d="M169.428 18.4871V16.0841C169.428 14.4641 168.294 13.4111 166.458 13.4111C165.081 13.4111 163.947 13.8161 162.975 14.4641V13.1681C163.785 12.6281 165.108 12.1691 166.593 12.1691C169.131 12.1691 170.724 13.6271 170.724 16.0031V24.4001H169.428V23.2661C168.915 23.8871 167.592 24.5891 166.107 24.5891C163.677 24.5891 161.679 23.1851 161.679 20.8901C161.679 18.6761 163.677 17.2181 166.161 17.2181C167.592 17.2181 168.888 17.8931 169.428 18.4871ZM169.428 21.6731V20.1341C169.05 19.1081 167.7 18.3521 166.242 18.3521C164.541 18.3521 162.975 19.1891 162.975 20.8901C162.975 22.5911 164.541 23.4551 166.242 23.4551C167.7 23.4551 169.05 22.6991 169.428 21.6731Z" fill="#4B4E52"/>
<path d="M184.286 17.2451H179.804V24.4001H178.427V7.82206H184.286C187.526 7.82206 189.659 9.44206 189.659 12.5201C189.659 15.6251 187.526 17.2451 184.286 17.2451ZM188.282 12.5201C188.282 10.3601 186.797 9.06406 184.232 9.06406H179.804V15.9761H184.232C186.797 15.9761 188.282 14.7071 188.282 12.5201Z" fill="#4B4E52"/>
<path d="M192.772 6.85006V24.4001H191.422V6.85006H192.772Z" fill="#4B4E52"/>
<path d="M202.286 18.4871V16.0841C202.286 14.4641 201.152 13.4111 199.316 13.4111C197.939 13.4111 196.805 13.8161 195.833 14.4641V13.1681C196.643 12.6281 197.966 12.1691 199.451 12.1691C201.989 12.1691 203.582 13.6271 203.582 16.0031V24.4001H202.286V23.2661C201.773 23.8871 200.45 24.5891 198.965 24.5891C196.535 24.5891 194.537 23.1851 194.537 20.8901C194.537 18.6761 196.535 17.2181 199.019 17.2181C200.45 17.2181 201.746 17.8931 202.286 18.4871ZM202.286 21.6731V20.1341C201.908 19.1081 200.558 18.3521 199.1 18.3521C197.399 18.3521 195.833 19.1891 195.833 20.8901C195.833 22.5911 197.399 23.4551 199.1 23.4551C200.558 23.4551 201.908 22.6991 202.286 21.6731Z" fill="#4B4E52"/>
<path d="M208.728 13.5731V24.4001H207.378V13.5731H204.813V12.4121H207.378V9.33406H208.728V12.4121H211.563V13.5731H208.728Z" fill="#4B4E52"/>
<path d="M218.313 6.85006V8.09206C217.962 7.90306 217.557 7.79506 217.098 7.79506C215.829 7.79506 214.911 8.71306 214.911 10.3871V12.4121H217.719V13.5731H214.911V24.4001H213.588V13.5731H211.644V12.4121H213.588V10.2521C213.588 8.06506 215.019 6.60706 216.963 6.60706C217.476 6.60706 217.908 6.68806 218.313 6.85006Z" fill="#4B4E52"/>
<path d="M228.516 18.4061C228.516 22.1051 226.383 24.6431 223.197 24.6431C220.038 24.6431 217.905 22.1051 217.905 18.4061C217.905 14.7071 220.038 12.1691 223.197 12.1691C226.383 12.1691 228.516 14.7071 228.516 18.4061ZM227.166 18.4061C227.166 15.3821 225.6 13.3571 223.197 13.3571C220.821 13.3571 219.255 15.3821 219.255 18.4061C219.255 21.4301 220.821 23.4551 223.197 23.4551C225.6 23.4551 227.166 21.4301 227.166 18.4061Z" fill="#4B4E52"/>
<path d="M236.041 12.3311V13.6541C235.717 13.5191 235.366 13.4381 234.934 13.4381C233.476 13.4381 232.315 14.4911 231.748 16.0301V24.4001H230.398V12.4121H231.748V14.3291C232.288 13.1411 233.503 12.1691 234.988 12.1691C235.447 12.1691 235.771 12.2501 236.041 12.3311Z" fill="#4B4E52"/>
<path d="M245.593 14.4641C246.268 13.2761 247.618 12.1691 249.319 12.1691C251.749 12.1691 252.964 13.8971 252.964 16.3001V24.4001H251.641V16.4891C251.641 14.6531 250.831 13.4111 249.076 13.4111C247.591 13.4111 246.376 14.4911 245.89 15.9221V24.4001H244.54V16.4891C244.54 14.6531 243.73 13.4111 241.975 13.4111C240.49 13.4111 239.275 14.4911 238.789 15.9221V24.4001H237.439V12.4121H238.789V14.2481C239.383 13.1141 240.625 12.1691 242.245 12.1691C243.973 12.1691 245.107 13.1141 245.593 14.4641Z" fill="#4B4E52"/>
<path d="M23.8822 20.3242C23.8822 20.5983 23.6872 20.935 23.4434 21.0697L17.3449 24.5424V11.1422L5.58665 4.44689L11.6852 0.974182C11.924 0.834697 12.3189 0.834697 12.5626 0.974182L23.8822 7.42418V20.3242ZM14.732 12.6332L6.67863 8.04465C6.43976 7.90998 6.04489 7.90998 5.80115 8.04465L0.360748 11.1422L8.85284 15.9809V25.6583L14.2932 22.556C14.5321 22.4165 14.732 22.0798 14.732 21.8056V12.6332ZM0.360748 20.8196L6.23501 24.1673V17.4671L0.360748 20.8196Z" fill="#5CE500"/>
</g>
<defs>
<clipPath id="clip0_59_866">
<rect width="253" height="30" fill="white"/>
</clipPath>
</defs>
</svg>
